# xmcd CD database file
#
# Track frame offsets:
#	150
#	10752
#	20837
#	32312
#	47462
#	58615
#	67915
#	77195
#	91962
#	101490
#
# Disc length: 1557 seconds
#
# Revision: 1
# Processed by: cddbd v1.5.2PL0 Copyright (c) Steve Scherf et al.
# Submitted via: jetAudio 7
#
DISCID=6d06130a
DTITLE=Chet Atkins and Floyd Cramer - Country Music Cavalcade [CD1]
DYEAR=1998
DGENRE=Country
TTITLE0=Alley Cat
TTITLE1=Mister Sandman
TTITLE2=Sleep Walk
TTITLE3=Hawaiian Wedding Song
TTITLE4=Last Date
TTITLE5=Java
TTITLE6=Chattanooga Choo-Choo
TTITLE7=Let It Be Me
TTITLE8=Theme From ''A Summer Place''
TTITLE9=Autumn Leaves
EXTD=
EXTT0=
EXTT1=
EXTT2=
EXTT3=
EXTT4=
EXTT5=
EXTT6=
EXTT7=
EXTT8=
EXTT9=
PLAYORDER=
